<svg width="48" height="48" viewBox="0 0 48 48" fill="none" xmlns="http://www.w3.org/2000/svg">
<g clip-path="url(#clip0_1_5)">
<rect width="48" height="48" fill="#2E8A99"/>
<path d="M27.9453 29.5234V5.875H34.9531V29.5234C34.9531 31.8047 34.4531 33.7656 33.4531 35.4062C32.4531 37.0312 31.0859 38.2812 29.3516 39.1562C27.6328 40.0312 25.6953 40.4688 23.5391 40.4688C21.3047 40.4688 19.3281 40.0938 17.6094 39.3438C15.8906 38.5938 14.5391 37.4453 13.5547 35.8984C12.5703 34.3359 12.0781 32.3594 12.0781 29.9688H19.1328C19.1328 31.2188 19.3047 32.2109 19.6484 32.9453C20.0078 33.6797 20.5156 34.2031 21.1719 34.5156C21.8281 34.8281 22.6172 34.9844 23.5391 34.9844C24.4297 34.9844 25.2031 34.7734 25.8594 34.3516C26.5156 33.9297 27.0234 33.3125 27.3828 32.5C27.7578 31.6875 27.9453 30.6953 27.9453 29.5234Z" fill="white"/>
</g>
<defs>
<clipPath id="clip0_1_5">
<rect width="48" height="48" fill="white"/>
</clipPath>
</defs>
</svg>
